<svg xmlns="http://www.w3.org/2000/svg" viewBox="0 0 215.5 62.96"><defs><style>.cls-1{fill:#fff;}</style></defs><title>Recurso 5</title><g id="Capa_2" data-name="Capa 2"><g id="Capa_1-2" data-name="Capa 1"><path class="cls-1" d="M85.11,25.51q0,7.9-4.55,12.47-4.05,4.16-12.3,4.15T55.85,38q-4.5-4.56-4.5-12.47V9.81a24.52,24.52,0,0,0-.41-5.42,4,4,0,0,0-2.48-2.95V.87h9.18V25.51c0,4,1,6.88,2.87,8.74a10.72,10.72,0,0,0,7.84,2.8,10.63,10.63,0,0,0,7.78-2.8C78,32.39,79,29.47,79,25.51V.87h6.11Z"/><path class="cls-1" d="M136.35,41.21h-6.41V11L117.59,29.09H115.4L103.05,11h0V41.21H97.22V9.81a24.52,24.52,0,0,0-.41-5.42,3.92,3.92,0,0,0-2.42-2.95V.87h8.83l13.94,20.45L131,.87h5.39Z"/><path class="cls-1" d="M182.1,25.51q0,7.9-4.56,12.47-4,4.16-12.29,4.15T152.84,38q-4.5-4.56-4.5-12.47V9.81a24.52,24.52,0,0,0-.41-5.42,4,4,0,0,0-2.48-2.95V.87h9.18V25.51c0,4,1,6.88,2.86,8.74a12.31,12.31,0,0,0,15.63,0C175,32.39,176,29.47,176,25.51V.87h6.12Z"/><path class="cls-1" d="M215.5,30.59a10.77,10.77,0,0,1-4.41,9.06,13.49,13.49,0,0,1-8.53,2.54,18.19,18.19,0,0,1-10.73-3.06V32.78a15.11,15.11,0,0,0,10.58,4.39,7.63,7.63,0,0,0,5.17-1.62,4.69,4.69,0,0,0,1.8-3.86v-.23a6.08,6.08,0,0,0-2.25-4.79,34.47,34.47,0,0,0-6.47-4.16,23.41,23.41,0,0,1-6.35-4.91,10.26,10.26,0,0,1-2.48-6.81,9.78,9.78,0,0,1,3.49-7.85A13.64,13.64,0,0,1,204.41,0a16.68,16.68,0,0,1,9.3,2.42v6a13.46,13.46,0,0,0-9.3-3.35q-6.47,0-6.52,4.85V10A5.62,5.62,0,0,0,200,14.2a27.39,27.39,0,0,0,4.79,3.23,34.16,34.16,0,0,1,8,5.71A10.87,10.87,0,0,1,215.5,30.59Z"/><path class="cls-1" d="M33.94.87V31.63L8,.87H0v.57c.12.05.21.12.32.17a1.92,1.92,0,0,1,.47.25l.11.08a4.57,4.57,0,0,1,.53.49l.16.18,6.72,7.65,25.85,31h5.2V.87Z"/><polyline class="cls-1" points="2.8 41.22 2.8 29.13 14.9 41.22"/><path class="cls-1" d="M47.61,62.72H46.09V55.11a6.32,6.32,0,0,0-.1-1.32,1,1,0,0,0-.6-.7v-.15h2.22Z"/><path class="cls-1" d="M61.86,62.72H60.6l-6.26-7.51v7.51H53V55.11a5.68,5.68,0,0,0-.1-1.32.94.94,0,0,0-.59-.71v-.14h2l6.28,7.45V52.94h1.31Z"/><path class="cls-1" d="M76.68,62.72H75.12V55.39l-3,4.39H71.6l-3-4.39h0v7.33H67.19V55.11a5.68,5.68,0,0,0-.1-1.32,1,1,0,0,0-.58-.71v-.14h2.14l3.38,5,3.34-5h1.31Z"/><path class="cls-1" d="M92,57.83a4.91,4.91,0,0,1-1.43,3.57,5.31,5.31,0,0,1-4,1.56,5.23,5.23,0,0,1-3.88-1.54,4.94,4.94,0,0,1-1.44-3.59,4.89,4.89,0,0,1,1.47-3.59,5.26,5.26,0,0,1,3.89-1.53,5.31,5.31,0,0,1,3.92,1.53A4.91,4.91,0,0,1,92,57.83Zm-1.62,0A3.9,3.9,0,0,0,89.28,55a3.74,3.74,0,0,0-5.34,0,4.22,4.22,0,0,0,0,5.62,3.72,3.72,0,0,0,5.34,0A3.9,3.9,0,0,0,90.35,57.83Z"/><path class="cls-1" d="M103.29,60a2.44,2.44,0,0,1-.83,1.82,3.62,3.62,0,0,1-2.57.91H96.48V55.11a6.32,6.32,0,0,0-.1-1.32,1,1,0,0,0-.59-.71v-.14h3.67a3.33,3.33,0,0,1,2.32.74,2.2,2.2,0,0,1,.75,1.71,1.93,1.93,0,0,1-1.53,2v0A2.4,2.4,0,0,1,103.29,60Zm-2.22-4.41a1.44,1.44,0,0,0-.43-1.06A1.79,1.79,0,0,0,99.27,54H98v3.1h1.27a1.79,1.79,0,0,0,1.37-.49A1.44,1.44,0,0,0,101.07,55.58Zm.6,4.32a1.56,1.56,0,0,0-.52-1.2,2.35,2.35,0,0,0-1.63-.53H98v3.46h1.52a2.35,2.35,0,0,0,1.63-.53A1.56,1.56,0,0,0,101.67,59.9Z"/><path class="cls-1" d="M109.48,62.72H108V55.11a5.68,5.68,0,0,0-.1-1.32.94.94,0,0,0-.6-.7v-.15h2.23Z"/><path class="cls-1" d="M120.52,62.72h-5.65V55.11a5.68,5.68,0,0,0-.1-1.32.93.93,0,0,0-.6-.71v-.14h2.23v8.62h4.12Z"/><path class="cls-1" d="M126.3,62.72h-1.53V55.11a5.68,5.68,0,0,0-.1-1.32.94.94,0,0,0-.6-.7v-.15h2.23Z"/><path class="cls-1" d="M139.94,62.72h-1.56l-1.32-2.95h-4.13l-1.26,2.95h-1.34l4.17-9.78h1.1Zm-3.4-4.07L135.36,56a6.63,6.63,0,0,1-.44-1.18,10.68,10.68,0,0,1-.41,1.17l-1.09,2.68Z"/><path class="cls-1" d="M151.5,62.72h-1.67l-1.28-2a8.41,8.41,0,0,0-1.47-1.87,1.75,1.75,0,0,0-1.14-.39h-.52v4.28h-1.53V55.11a5.57,5.57,0,0,0-.1-1.32.94.94,0,0,0-.59-.71v-.14h3.41a3.53,3.53,0,0,1,2.35.73,2.52,2.52,0,0,1,.86,2,2.18,2.18,0,0,1-.49,1.43A2.64,2.64,0,0,1,148,58a4.36,4.36,0,0,1,1.18,1.12c.08.12.43.67,1,1.64Zm-3.24-7.07v0c0-1.07-.66-1.61-2-1.61h-.88v3.34h.88a2,2,0,0,0,1.53-.54A1.54,1.54,0,0,0,148.26,55.65Z"/><path class="cls-1" d="M157.14,62.72h-1.52V55.11a6.32,6.32,0,0,0-.1-1.32,1,1,0,0,0-.6-.7v-.15h2.22Z"/><path class="cls-1" d="M170.79,62.72h-1.56l-1.33-2.95h-4.13l-1.26,2.95h-1.34l4.17-9.78h1.11Zm-3.4-4.07L166.21,56a6.89,6.89,0,0,1-.45-1.18,10.24,10.24,0,0,1-.4,1.17l-1.1,2.68Z"/></g></g></svg>